<svg width="16" height="16" viewBox="0 0 16 16" fill="none" xmlns="http://www.w3.org/2000/svg">
<path d="M13 0.5C12.337 0.5 11.7011 0.763392 11.2322 1.23223C10.7634 1.70107 10.5 2.33696 10.5 3V13C10.5 13.663 10.7634 14.2989 11.2322 14.7678C11.7011 15.2366 12.337 15.5 13 15.5C13.663 15.5 14.2989 15.2366 14.7678 14.7678C15.2366 14.2989 15.5 13.663 15.5 13C15.5 12.337 15.2366 11.7011 14.7678 11.2322C14.2989 10.7634 13.663 10.5 13 10.5H3C2.33696 10.5 1.70107 10.7634 1.23223 11.2322C0.763392 11.7011 0.5 12.337 0.5 13C0.5 13.663 0.763392 14.2989 1.23223 14.7678C1.70107 15.2366 2.33696 15.5 3 15.5C3.66304 15.5 4.29893 15.2366 4.76777 14.7678C5.23661 14.2989 5.5 13.663 5.5 13V3C5.5 2.33696 5.23661 1.70107 4.76777 1.23223C4.29893 0.763392 3.66304 0.5 3 0.5C2.33696 0.5 1.70107 0.763392 1.23223 1.23223C0.763392 1.70107 0.5 2.33696 0.5 3C0.5 3.66304 0.763392 4.29893 1.23223 4.76777C1.70107 5.23661 2.33696 5.5 3 5.5H13C13.663 5.5 14.2989 5.23661 14.7678 4.76777C15.2366 4.29893 15.5 3.66304 15.5 3C15.5 2.33696 15.2366 1.70107 14.7678 1.23223C14.2989 0.763392 13.663 0.5 13 0.5Z" stroke="white" stroke-opacity="0.8" stroke-linecap="round" stroke-linejoin="round"/>
</svg>
