<svg width="20" height="20" viewBox="0 0 20 20" fill="none" xmlns="http://www.w3.org/2000/svg">
<path d="M4.16663 14.1666C3.64329 14.0541 3.23246 13.8741 2.88496 13.585C2.71597 13.4442 2.56133 13.287 2.42329 13.1158C1.66663 12.18 1.66663 10.7916 1.66663 8.00996C1.66663 5.22829 1.66663 3.83913 2.42329 2.90329C2.56133 2.73206 2.71597 2.5749 2.88496 2.43413C3.80829 1.66663 5.17663 1.66663 7.91663 1.66663H12.0833C14.8233 1.66663 16.1925 1.66663 17.115 2.43413C17.2838 2.57579 17.4377 2.73218 17.5766 2.90329C18.3333 3.83913 18.3333 5.22913 18.3333 8.00996C18.3333 10.79 18.3333 12.18 17.5766 13.1158C17.4386 13.287 17.2839 13.4442 17.115 13.585C16.7675 13.8741 16.3566 14.0541 15.8333 14.1666M4.99996 10.8333H6.11079M6.11079 10.8333L7.08329 18.3333M6.11079 10.8333H9.99996M9.99996 10.8333H13.8891M9.99996 10.8333V18.3333M15 10.8333H13.8891M13.8891 10.8333L12.9166 18.3333" stroke="white" stroke-opacity="0.8" stroke-linecap="round" stroke-linejoin="round"/>
<path d="M6.66663 8.33329C6.71579 6.70663 7.71829 6.66663 9.16496 6.66663H10.835C12.2816 6.66663 13.285 6.70663 13.3333 8.33329M6.66663 13.75H13.3333M7.03663 16.6666H12.9633" stroke="white" stroke-opacity="0.8" stroke-linecap="round" stroke-linejoin="round"/>
</svg>
