<svg width="18" height="18" viewBox="0 0 18 18" fill="none" xmlns="http://www.w3.org/2000/svg">
<path d="M8.99996 5.66669L12.17 7.97002M8.99996 5.66669L5.82996 7.97002M8.99996 5.66669V3.16669M12.17 7.97002L10.9591 11.6967H7.04163M12.17 7.97002L14.4166 6.91669M5.82996 7.97002L7.04163 11.6967M5.82996 7.97002L3.58329 6.91669M8.99996 3.16669L6.18663 1.15335M8.99996 3.16669L11.8133 1.15335M14.4166 6.91669L17.2916 9.83335M14.4166 6.91669L15.25 3.48752M7.04163 11.6967L5.66663 13.5834M10.96 11.6967L12.3333 13.5834M12.3333 13.5834L16.2183 13.1667M12.3333 13.5834L10.25 17.24M5.66663 13.5834L1.78163 13.1667M5.66663 13.5834L7.74996 17.24M3.58329 6.91669L0.708293 9.83335M3.58329 6.91669L2.74996 3.48752M17.3333 9.00002C17.3333 13.6025 13.6025 17.3334 8.99996 17.3334C4.39746 17.3334 0.666626 13.6025 0.666626 9.00002C0.666626 4.39752 4.39746 0.666687 8.99996 0.666687C13.6025 0.666687 17.3333 4.39752 17.3333 9.00002Z" stroke="white" stroke-opacity="0.8" stroke-linecap="round" stroke-linejoin="round"/>
</svg>
