<svg width="18" height="18" viewBox="0 0 18 18" fill="none" xmlns="http://www.w3.org/2000/svg">
<path d="M9.99665 0.72583C9.99665 0.72583 9.80331 3.725 11.8866 7.33416C13.97 10.9433 16.6641 12.2742 16.6641 12.2742M1.33582 5.72583C1.33582 5.72583 4.02998 7.05833 6.11332 10.6675C8.19665 14.2767 8.00331 17.2742 8.00331 17.2742" stroke="white" stroke-opacity="0.8"/>
<path d="M4.83329 1.78164C6.0995 1.04891 7.53703 0.664225 8.99996 0.666637C13.6025 0.666637 17.3333 4.39747 17.3333 8.99997C17.3333 13.6025 13.6025 17.3333 8.99996 17.3333C4.39746 17.3333 0.666626 13.6025 0.666626 8.99997C0.666626 7.48247 1.07246 6.0583 1.78163 4.8333" stroke="white" stroke-opacity="0.8" stroke-linecap="round"/>
</svg>
